<svg width="20" height="20" viewBox="0 0 20 20" fill="none" xmlns="http://www.w3.org/2000/svg">
<circle cx="10" cy="10" r="10" fill="#FFD700"/>
<path d="M10.295 4.35C10.955 4.35 11.54 4.42 12.05 4.56C12.57 4.69 12.98 4.855 13.28 5.055C13.58 5.255 13.83 5.49 14.03 5.76C14.35 6.2 14.51 6.645 14.51 7.095C14.51 7.535 14.42 7.945 14.24 8.325C14.06 8.695 13.86 9 13.64 9.24C13.43 9.47 13.175 9.74 12.875 10.05C12.575 10.35 12.37 10.58 12.26 10.74C12.15 10.9 12.08 11 12.05 11.04C11.95 11.15 11.83 11.205 11.69 11.205H8.48C8.41 11.205 8.345 11.18 8.285 11.13C8.225 11.07 8.195 11.01 8.195 10.95C8.195 10.69 8.355 10.36 8.675 9.96C8.995 9.56 9.28 9.25 9.53 9.03C10.2 8.46 10.535 8.035 10.535 7.755C10.535 7.605 10.485 7.49 10.385 7.41C10.295 7.32 10.15 7.275 9.95 7.275C9.76 7.275 9.595 7.325 9.455 7.425C9.325 7.515 9.24 7.62 9.2 7.74C9.11 8.05 8.915 8.205 8.615 8.205H5.825C5.715 8.205 5.625 8.16 5.555 8.07C5.485 7.98 5.45 7.875 5.45 7.755V7.74C5.45 6.88 5.87 6.1 6.71 5.4C7.56 4.7 8.755 4.35 10.295 4.35ZM8.63 11.805H11.375C11.485 11.805 11.58 11.845 11.66 11.925C11.74 12.005 11.78 12.1 11.78 12.21V14.595C11.78 14.705 11.74 14.8 11.66 14.88C11.58 14.96 11.485 15 11.375 15H8.63C8.52 15 8.425 14.96 8.345 14.88C8.265 14.8 8.225 14.705 8.225 14.595V12.21C8.225 12.1 8.265 12.005 8.345 11.925C8.425 11.845 8.52 11.805 8.63 11.805Z" fill="black"/>
</svg>
